<?xml version="1.0" encoding="iso-8859-1"?>
<!-- Generator: Adobe Illustrator 17.1.0, SVG Export Plug-In . SVG Version: 6.00 Build 0)  -->
<!DOCTYPE svg PUBLIC "-//W3C//DTD SVG 1.1//EN" "http://www.w3.org/Graphics/SVG/1.1/DTD/svg11.dtd">
<svg version="1.1" id="Capa_1" xmlns="http://www.w3.org/2000/svg" xmlns:xlink="http://www.w3.org/1999/xlink" x="0px" y="0px"
	 viewBox="0 0 512 512" style="enable-background:new 0 0 512 512;" xml:space="preserve">
<g>
	<path d="M504,268h-17.799c4.985-6.733,12.028-13.916,20.098-16.338c0.038-0.012,0.074-0.028,0.112-0.04
		c0.136-0.043,0.27-0.093,0.403-0.144c0.117-0.044,0.235-0.086,0.349-0.135c0.117-0.05,0.231-0.108,0.345-0.164
		c0.123-0.06,0.247-0.118,0.366-0.184c0.102-0.056,0.199-0.12,0.299-0.18c0.122-0.075,0.246-0.148,0.364-0.229
		c0.098-0.067,0.192-0.143,0.288-0.215c0.109-0.083,0.221-0.164,0.325-0.251c0.1-0.084,0.195-0.176,0.291-0.266
		c0.092-0.085,0.187-0.169,0.275-0.259c0.096-0.098,0.185-0.203,0.276-0.307c0.08-0.091,0.163-0.181,0.239-0.275
		c0.083-0.104,0.16-0.213,0.238-0.321c0.077-0.106,0.154-0.21,0.226-0.319c0.067-0.103,0.127-0.209,0.19-0.316
		c0.073-0.125,0.146-0.249,0.213-0.377c0.018-0.035,0.04-0.067,0.058-0.102c0.036-0.073,0.063-0.147,0.097-0.221
		c0.061-0.132,0.121-0.264,0.175-0.399c0.046-0.116,0.088-0.233,0.128-0.351c0.044-0.128,0.087-0.257,0.125-0.388
		c0.036-0.125,0.068-0.25,0.098-0.376c0.03-0.126,0.058-0.253,0.082-0.382c0.024-0.129,0.044-0.258,0.061-0.387
		c0.018-0.129,0.033-0.257,0.044-0.387c0.011-0.129,0.018-0.258,0.023-0.388c0.005-0.131,0.007-0.262,0.006-0.395
		c-0.002-0.129-0.007-0.258-0.015-0.386c-0.008-0.131-0.018-0.262-0.032-0.393c-0.015-0.133-0.035-0.265-0.056-0.397
		c-0.02-0.124-0.041-0.248-0.067-0.373c-0.03-0.141-0.066-0.28-0.103-0.42c-0.021-0.078-0.034-0.157-0.058-0.235
		c-0.011-0.038-0.028-0.073-0.04-0.111c-0.043-0.136-0.093-0.27-0.143-0.403c-0.044-0.118-0.086-0.236-0.136-0.35
		c-0.049-0.115-0.106-0.226-0.161-0.339c-0.061-0.126-0.121-0.253-0.188-0.375c-0.052-0.095-0.112-0.186-0.168-0.278
		c-0.079-0.131-0.157-0.262-0.243-0.387c-0.058-0.084-0.123-0.165-0.185-0.247c-0.093-0.125-0.185-0.25-0.285-0.369
		c-0.068-0.081-0.144-0.157-0.215-0.236c-0.103-0.112-0.204-0.226-0.313-0.332c-0.077-0.075-0.159-0.144-0.239-0.216
		c-0.115-0.103-0.228-0.207-0.349-0.303c-0.078-0.063-0.162-0.12-0.243-0.18c-0.133-0.098-0.265-0.195-0.403-0.285
		c-0.076-0.049-0.155-0.094-0.233-0.14c-0.153-0.092-0.307-0.182-0.465-0.263c-0.026-0.014-0.049-0.03-0.076-0.043
		c-9.091-4.546-27.423-11.931-48.635-19.598c-0.159-0.063-0.319-0.121-0.481-0.174C419.411,202.979,370.793,188,352,188
		c-8.442,0-29.605,0.62-56.3,2.42c-1.099-9.504-5.921-28.746-26.158-48.188c-2.938-2.824-7.532-2.987-10.664-0.377l-48,40
		c-1.727,1.438-2.769,3.538-2.87,5.783c-0.102,2.245,0.746,4.43,2.335,6.02l4.923,4.923c-34.847,4.956-68.496,12.065-90.586,22.142
		c-18.914,8.627-29.592,6.974-39.868,0.886c-0.408-0.307-0.844-0.572-1.299-0.794c-3.653-2.298-7.297-5.125-11.286-8.223
		C58.119,201.635,40.56,188,8,188c-2.642,0-5.114,1.305-6.605,3.486c-1.491,2.182-1.808,4.959-0.848,7.421
		C0.702,199.304,16,238.783,16,260S0.702,320.696,0.547,321.093c-0.96,2.462-0.643,5.239,0.848,7.421C2.886,330.695,5.358,332,8,332
		c32.485,0,50.249-14.048,64.521-25.336c3.167-2.504,6.088-4.812,8.931-6.813c2.014-0.375,3.852-1.511,5.076-3.252
		c7.43-4.205,15.007-5.74,25.768-2.477c0.038,0.136,0.068,0.273,0.114,0.409l16,48c1.099,3.297,4.18,5.47,7.584,5.47
		c0.322,0,0.647-0.019,0.973-0.059c0.958-0.117,23.701-3.13,44.958-26.566c0.102-0.112,0.19-0.231,0.284-0.347
		c14.007,3.618,27.909,6.098,41.79,7.784V364c0,2.378,1.058,4.632,2.886,6.151c1.448,1.204,3.261,1.849,5.114,1.849
		c0.486,0,0.975-0.044,1.461-0.135c1.553-0.288,35.894-7.047,44.975-39.718c5.512,0.083,11.038,0.116,16.583,0.116
		c8.015,0,16.081-0.065,24.191-0.131C327.302,332.068,335.669,332,344,332c78.132,0,146.078-34.212,165.078-49.818
		c2.611-2.145,3.593-5.697,2.454-8.878C510.393,270.122,507.378,268,504,268z M227.851,188.537l35.56-29.633
		c12.417,13.939,15.571,26.521,16.354,32.687c-14.102,1.123-29.215,2.562-44.479,4.381L227.851,188.537z M131.32,235.279
		C187.247,209.768,328.361,204,352,204c13.403,0,48.258,10.012,81.55,21.287c-10.026,5.745-17.77,12.814-23.168,18.713
		c-18.496-11.633-51.064-19.163-90.058-20.745c-49.383-1.99-108.267,5.256-170.291,20.989c-51.616,13.093-75.203,4.225-80.443,1.708
		c3.346-4.03,7.481-7.002,10.339-8.773C92.488,243.681,107.897,245.965,131.32,235.279z M408.913,308.056
		c-0.03-0.003-0.059-0.011-0.09-0.014c-17.964-1.857-39.601-4.901-44.32-6.699c-1.767-1.555-6.353-6.317-10.511-12.188
		c-4.949-6.987-6.157-11.086-6.261-12.645c0.608-0.21,1.892-0.51,4.27-0.51c23.25,0,51.926,17.697,58.209,21.764
		c1.401,3.301,2.799,6.346,4.092,8.969C412.521,307.187,410.723,307.627,408.913,308.056z M19.681,315.236
		C24.591,300.911,32,276.553,32,260c0-16.564-7.419-40.946-12.329-55.266c19.698,2.597,31.382,11.672,42.743,20.493
		c1.063,0.826,2.128,1.652,3.201,2.474C57.535,234.061,48,244.784,48,260c0,14.995,9.259,25.624,17.261,32.015
		c-0.891,0.698-1.779,1.399-2.664,2.099C51.109,303.199,39.289,312.546,19.681,315.236z M146.106,328.455
		c-1.794,0.811-3.436,1.446-4.874,1.943l-9.171-27.512c11.018,5.207,21.917,9.505,32.732,13.046
		C157.711,322.428,150.935,326.275,146.106,328.455z M240,352.961v-22.535c7.219,0.587,14.441,0.999,21.679,1.279
		C256.936,343.334,247.309,349.675,240,352.961z M319.08,316.134c-15.736,0.126-31.255,0.249-46.66-0.119
		c-0.073-0.004-0.145-0.002-0.218-0.004c-46.985-1.135-92.898-6.87-140.573-31.139c-23.838-12.135-39.491-9.566-52.371-2.488
		c-5.495-3.544-14.652-10.977-15.22-21.372c3.742,1.651,9.827,3.743,18.635,5.034c5.633,0.825,11.633,1.237,17.985,1.237
		c15.7,0,33.55-2.517,53.307-7.527c60.549-15.36,117.848-22.453,165.709-20.512c34.947,1.417,64.784,7.929,80.989,17.563
		c-0.437,1.004-0.665,2.09-0.665,3.193c0,4.26,0.862,9.358,2.228,14.718C388.661,267.768,369.572,260,352,260
		c-12.958,0-17.707,5.911-19.408,10.869c-2.397,6.988,0.167,15.759,7.839,26.813c4.938,7.115,11.33,14.044,14.658,16.632
		c0.41,0.319,0.983,0.764,2.229,1.319C352.902,315.868,348.46,316,344,316C335.605,316,327.204,316.069,319.08,316.134z
		 M465.261,280.312c1.47,2.298,4.011,3.688,6.739,3.688h3.914c-12.359,6.261-28.073,12.789-45.916,18.305
		c-5.035-9.49-12.851-28.977-13.883-40.04c4.059-5.714,17.658-22.728,39.59-29.208c11.437,4.152,21.967,8.207,30.489,11.744
		c-13.51,10.91-21.044,26.951-21.457,27.847C463.593,275.125,463.791,278.014,465.261,280.312z"/>
	<path d="M455.999,243.999c-2.11,0-4.17,0.859-5.66,2.34c-1.48,1.49-2.34,3.55-2.34,5.66c0,2.1,0.86,4.17,2.34,5.66
		c1.49,1.489,3.55,2.34,5.66,2.34c2.11,0,4.17-0.851,5.66-2.34c1.49-1.49,2.34-3.561,2.34-5.66c0-2.101-0.85-4.17-2.34-5.66
		C460.169,244.859,458.109,243.999,455.999,243.999z"/>
</g>
<g>
</g>
<g>
</g>
<g>
</g>
<g>
</g>
<g>
</g>
<g>
</g>
<g>
</g>
<g>
</g>
<g>
</g>
<g>
</g>
<g>
</g>
<g>
</g>
<g>
</g>
<g>
</g>
<g>
</g>
</svg>
